<svg width="452" height="699" viewBox="0 0 452 699" fill="none" xmlns="http://www.w3.org/2000/svg">
<path d="M223.601 251.685C223.467 251.92 223.379 252.178 223.341 252.445C222.751 256.205 221.581 262.995 220.851 266.705C219.461 273.665 218.201 282.495 214.291 288.425C213.141 290.346 211.511 291.935 209.561 293.035C207.166 294.054 204.434 293.899 202.171 292.615C200.091 291.115 199.521 288.315 199.121 285.785C197.501 275.715 196.401 266.305 194.971 256.465C194.961 256.435 194.481 252.935 194.161 250.585C194.134 250.362 194.07 250.146 193.971 249.945C203.351 246.085 206.931 231.245 207.071 218.375C209.062 219.398 211.238 220.01 213.471 220.175C214.85 220.314 216.235 220.377 217.621 220.365C215.791 229.565 214.901 241.075 219.871 248.045C220.834 249.515 222.107 250.758 223.601 251.685Z" fill="white"/>
<path fill-rule="evenodd" clip-rule="evenodd" d="M201.879 293.023C203.205 293.844 204.744 294.255 206.303 294.205C207.503 294.23 208.694 293.984 209.785 293.484C211.822 292.356 213.521 290.706 214.708 288.703C218.157 283.472 219.558 276.126 220.792 269.645L220.832 269.437C221.003 268.538 221.171 267.658 221.342 266.804C222.078 263.059 223.247 256.273 223.836 252.518C223.864 252.312 223.932 252.114 224.036 251.935L224.274 251.516L223.865 251.263C222.427 250.371 221.203 249.174 220.278 247.757C216.337 242.231 215.608 233.048 218.111 220.465L218.232 219.857L217.613 219.867C216.245 219.88 214.878 219.817 213.517 219.679C211.351 219.519 209.239 218.927 207.307 217.937L206.579 217.547L206.57 218.372C206.435 230.925 203.003 245.69 193.78 249.485L193.284 249.689L193.523 250.17C193.597 250.323 193.645 250.486 193.666 250.655C194.406 256.102 194.476 256.545 194.477 256.545V256.543C195.026 260.323 195.526 264.04 196.027 267.756L196.034 267.81C196.819 273.646 197.632 279.681 198.627 285.866C199.062 288.615 199.672 291.431 201.879 293.023ZM194.657 250.522C194.644 250.42 194.625 250.319 194.6 250.219C203.749 246.055 207.284 231.677 207.558 219.179C209.413 220.009 211.397 220.515 213.424 220.675C214.743 220.8 215.924 220.864 217.014 220.87C214.597 233.429 215.421 242.668 219.453 248.322C220.375 249.73 221.57 250.939 222.969 251.875C222.912 252.035 222.871 252.201 222.847 252.37C222.261 256.109 221.095 262.877 220.361 266.609C220.194 267.45 220.028 268.318 219.858 269.204L219.81 269.458C218.593 275.847 217.213 283.089 213.874 288.151C212.781 290.007 211.215 291.539 209.336 292.591C207.107 293.519 204.576 293.379 202.463 292.212C200.568 290.845 200.017 288.25 199.614 285.708C198.622 279.535 197.81 273.507 197.025 267.677L196.986 267.388C196.496 263.746 196.004 260.101 195.463 256.378C195.435 256.212 194.985 252.937 194.657 250.522Z" fill="black"/>
<path d="M223.291 670.619C222.501 674.379 217.611 675.269 214.651 677.709C211.181 680.559 211.27 682.269 210.561 688.049C210.151 691.339 210.521 695.479 207.541 696.939C205.571 698.009 200.001 697.949 198.291 697.619C196.469 697.48 195.078 695.935 195.131 694.109C195.041 691.983 196.025 689.954 197.75 688.709C201.101 686.339 201.091 682.659 201.081 678.999C201.046 677.69 201.093 676.381 201.221 675.079C202.291 666.419 204.601 661.849 204.961 654.369C205.561 645.359 206.074 636.392 206.5 627.469L220.151 627.699C218.48 637.459 216.921 646.949 215.471 656.019C215.383 656.613 215.417 657.218 215.571 657.799C216.161 660.149 218.431 662.209 219.99 663.699C221.921 665.549 223.851 668.009 223.291 670.619Z" fill="white"/>
<path fill-rule="evenodd" clip-rule="evenodd" d="M198.195 698.11C199.292 698.274 200.4 698.348 201.509 698.33C203.782 698.33 206.467 698.091 207.76 697.388C210.425 696.082 210.667 692.878 210.88 690.051L210.882 690.018C210.931 689.368 210.98 688.724 211.057 688.109L211.224 686.716L211.224 686.714C211.781 681.998 211.95 680.574 214.969 678.095C216.014 677.302 217.134 676.613 218.314 676.037C220.72 674.761 223.208 673.44 223.779 670.723C224.269 668.441 223.142 666.026 220.336 663.338L220.08 663.094C218.603 661.687 216.578 659.761 216.055 657.674C215.918 657.16 215.888 656.624 215.965 656.098C217.557 646.138 219.088 636.876 220.644 627.783L220.741 627.209L206.024 626.961L206.001 627.444C205.566 636.484 205.048 645.532 204.462 654.345C204.222 657.945 203.622 661.513 202.671 664.994C201.819 668.293 201.17 671.641 200.725 675.02C200.593 676.342 200.544 677.671 200.58 679C200.591 682.642 200.601 686.08 197.461 688.301C195.599 689.647 194.536 691.837 194.632 694.133C194.583 696.192 196.144 697.934 198.195 698.11ZM205.46 654.402C206.036 645.749 206.546 636.861 206.976 627.977L219.56 628.189C218.037 637.101 216.536 646.186 214.976 655.945C214.88 656.604 214.918 657.276 215.085 657.921C215.679 660.284 217.823 662.326 219.389 663.817L219.391 663.818L219.645 664.06C222.18 666.489 223.212 668.601 222.801 670.515V670.517C222.326 672.776 220.15 673.932 217.845 675.154C216.606 675.759 215.429 676.486 214.333 677.322C211.004 680.057 210.793 681.837 210.231 686.596L210.231 686.598L210.065 687.987C209.984 688.627 209.934 689.298 209.883 689.976C209.681 692.66 209.471 695.436 207.302 696.499C205.49 697.483 200.045 697.447 198.386 697.129C196.795 697.03 195.573 695.681 195.631 694.088C195.548 692.132 196.453 690.265 198.039 689.117C201.602 686.597 201.591 682.735 201.58 678.997L201.58 678.995C201.545 677.709 201.591 676.421 201.717 675.141C202.158 671.8 202.801 668.49 203.644 665.228C204.61 661.689 205.218 658.062 205.46 654.402Z" fill="black"/>
<path d="M207.71 549.478C207.65 550.198 207.33 552.018 206.14 552.678C205.2 553.188 202.94 553.468 202.26 550.198C201.49 546.528 199.3 541.188 198.08 537.638C197.78 536.778 197.34 535.728 196.81 534.588C195.001 530.695 192.856 526.968 190.4 523.448C187.51 520.208 164.28 508.108 159.74 505.678L166.41 493.188C174.81 499.818 183.77 506.808 192.9 514.978C193.66 515.629 194.597 516.039 195.59 516.157C198.44 516.637 202.652 515.18 205.022 516.72C209.992 519.92 205.53 527.537 205.34 530.618C204.97 536.568 208.21 543.518 207.71 549.478Z" fill="white"/>
<path fill-rule="evenodd" clip-rule="evenodd" d="M203.71 553.231C204.08 553.402 204.483 553.489 204.891 553.487C205.411 553.485 205.923 553.357 206.383 553.112C207.904 552.268 208.171 549.969 208.209 549.517C208.47 546.409 207.736 543.029 207.026 539.76L207.023 539.75C206.229 536.781 205.831 533.719 205.84 530.646C205.991 529.593 206.247 528.558 206.604 527.556L206.605 527.556C207.731 523.887 209.275 518.86 205.295 516.299C203.711 515.27 201.487 515.45 199.337 515.625L199.322 515.626C198.113 515.779 196.889 515.792 195.677 515.663C194.774 515.562 193.923 515.192 193.233 514.602C184.767 507.026 176.544 500.54 168.591 494.268L168.578 494.258L166.251 492.422L159.063 505.88L159.504 506.115C159.997 506.38 160.711 506.758 161.595 507.226L161.628 507.243C168.742 511.013 187.515 520.961 190.001 523.746C192.435 527.239 194.562 530.936 196.357 534.796C196.888 535.937 197.32 536.975 197.607 537.797C197.936 538.753 198.335 539.839 198.757 540.986L198.802 541.108C199.988 544.104 200.98 547.174 201.771 550.297C201.903 551.532 202.626 552.626 203.71 553.231ZM162.062 506.342C161.416 506 160.861 505.705 160.417 505.469L166.569 493.947L167.959 495.043L167.992 495.069C175.926 501.327 184.131 507.798 192.558 515.338C193.387 516.062 194.415 516.519 195.508 516.648C196.803 516.793 198.111 516.784 199.404 516.623C201.395 516.46 203.45 516.292 204.752 517.139C208.097 519.292 206.739 523.711 205.648 527.262C205.265 528.338 204.994 529.452 204.842 530.584C204.823 533.75 205.228 536.904 206.046 539.963L206.047 539.969C206.742 543.167 207.461 546.473 207.213 549.433C207.194 549.655 206.998 551.627 205.902 552.235C205.356 552.531 204.705 552.563 204.131 552.324C203.343 551.842 202.83 551.014 202.75 550.093C201.95 546.921 200.944 543.804 199.74 540.763C199.304 539.577 198.892 538.456 198.552 537.47C198.254 536.614 197.809 535.544 197.264 534.374C195.432 530.439 193.26 526.67 190.773 523.112C188.437 520.493 174.203 512.774 162.062 506.342Z" fill="black"/>
<path d="M200.991 243.84C203.298 246.334 207.084 247.226 210.372 247.3C212.896 247.357 216.348 247.033 218.125 244.981C218.544 244.496 217.84 243.786 217.417 244.273C215.821 246.118 212.63 246.351 210.372 246.3C207.374 246.232 203.805 245.411 201.698 243.133C201.26 242.66 200.554 243.368 200.991 243.84Z" fill="black"/>
<path d="M130.426 74.5158C121.092 75.0998 111.813 72.7103 103.922 67.6906C98.6429 64.3131 94.061 59.7917 88.342 57.2287C81.3241 54.0836 73.0875 54.2295 65.8208 56.747C58.4523 59.194 51.9181 63.6592 46.961 69.6349C44.4557 72.5199 39.4389 80.482 41.5266 85.1459L65.079 78.1889C66.442 77.6653 67.9117 77.48 69.362 77.6489C70.7484 78.0298 72.0014 78.7889 72.9809 79.8414C79.5484 86.1675 82.5466 95.3415 80.9825 104.325C80.5777 106.52 79.8187 108.79 78.1058 110.221C76.9779 111.054 75.7109 111.68 74.364 112.069L51.7628 120.067C52.2963 121.496 53.1918 122.762 54.3616 123.741C66.0176 132.14 87.0956 133.574 98.8909 123.325C102.654 120.055 106.07 116.416 109.765 113.071C113.461 109.726 117.812 106.792 122.753 106.134L301.276 98.301C310.598 97.5583 319.917 99.7895 327.892 104.674C333.228 107.961 337.886 112.404 343.648 114.869C350.718 117.895 358.951 117.609 366.174 114.968C373.5 112.396 379.957 107.82 384.812 101.761C387.267 98.8337 392.148 90.7874 389.981 86.1597L366.551 93.5164C365.197 94.0632 363.73 94.2735 362.277 94.1293C360.885 93.772 359.619 93.0343 358.622 91.9987C351.948 85.7853 348.794 76.6636 350.205 67.6547C350.572 65.4528 351.292 63.1708 352.981 61.7104C354.094 60.8586 355.35 60.2115 356.69 59.7994L379.152 51.418C378.595 49.9982 377.678 48.7477 376.491 47.7888C364.694 39.5894 343.595 38.5144 331.976 48.9625C328.269 52.2955 324.916 55.9928 321.277 59.4001C317.639 62.8075 313.339 65.8151 308.41 66.5574L130.426 74.5158Z" fill="white"/>
<path fill-rule="evenodd" clip-rule="evenodd" d="M54.0697 124.144C60.0561 128.457 68.6859 131.035 77.3168 131.034C85.3256 131.033 93.3344 128.813 99.2191 123.699C101.317 121.876 103.336 119.911 105.289 118.01L105.363 117.938C106.9 116.443 108.488 114.898 110.102 113.439C114.563 109.4 118.723 107.172 122.775 106.63L301.317 98.7965C310.534 98.0556 319.748 100.262 327.629 105.097C329.593 106.306 331.502 107.702 333.349 109.052L333.367 109.065C336.481 111.526 339.864 113.627 343.452 115.326C350.241 118.232 358.587 118.272 366.346 115.435C373.755 112.835 380.286 108.208 385.195 102.079C387.874 98.8863 392.68 90.7408 390.434 85.9444L390.248 85.5484L366.402 93.0362C365.124 93.5533 363.741 93.7583 362.369 93.6344C361.069 93.2905 359.89 92.5959 358.958 91.6266C352.427 85.5161 349.335 76.5735 350.698 67.7335C351.149 65.0304 351.978 63.2355 353.308 62.0851C354.378 61.2739 355.582 60.6575 356.866 60.2643L379.714 51.7389L379.646 51.3316C379.065 49.7776 378.073 48.4102 376.777 47.3751C365.097 39.2569 343.688 37.7565 331.642 48.588C329.573 50.4484 327.584 52.4498 325.663 54.3854L325.638 54.4099C324.113 55.9448 322.538 57.5311 320.935 59.0324C316.543 63.1461 312.421 65.4445 308.387 66.0548L130.404 74.0133L130.394 74.0138C121.166 74.595 111.991 72.2324 104.192 67.2662C102.245 66.0211 100.356 64.5904 98.5294 63.2062L98.5229 63.2013C95.4514 60.6869 92.1044 58.5292 88.5463 56.7697C81.807 53.7482 73.4652 53.5665 65.6566 56.2711C58.2043 58.7444 51.5959 63.2599 46.5834 69.3038C43.85 72.4508 38.9057 80.5128 41.0707 85.3468L41.2494 85.7462L65.2211 78.6657C66.5072 78.1702 67.8929 77.9887 69.2631 78.1364C70.5562 78.5019 71.7236 79.2167 72.6371 80.2023C79.0646 86.4221 82.0044 95.4157 80.4916 104.231C79.9936 106.927 79.1342 108.708 77.7856 109.835C76.7022 110.628 75.4873 111.224 74.1967 111.595L51.2074 119.731L51.269 120.139C51.8233 121.702 52.7912 123.087 54.0697 124.144ZM54.6537 123.332C53.7032 122.513 52.9345 121.504 52.3969 120.37L74.5307 112.537C75.9336 112.128 77.2527 111.473 78.4262 110.602C79.9633 109.317 80.932 107.351 81.475 104.413C83.0453 95.2642 79.9948 85.9305 73.3246 79.4752C72.2785 78.3563 70.9398 77.5528 69.4604 77.1559C67.9305 76.9714 66.3787 77.1604 64.9379 77.7067L41.8246 84.5333C40.3246 80.1212 44.9213 72.7433 47.3393 69.9596C52.2385 64.0497 58.699 59.6344 65.9848 57.2164C73.5541 54.5944 81.6293 54.7653 88.1381 57.6818C91.6257 59.4129 94.9068 61.532 97.9193 63.9987L97.96 64.0294C99.7921 65.4169 101.685 66.8503 103.653 68.109C111.631 73.1838 121.012 75.6005 130.449 75.0123L308.484 67.0489C312.778 66.4025 317.074 64.0187 321.619 59.7618C323.227 58.2557 324.802 56.6702 326.327 55.1355L326.372 55.09C328.285 53.1642 330.262 51.173 332.31 49.3312C341.698 40.8898 362.033 38.3463 376.206 48.1964C377.171 48.9992 377.957 49.9948 378.514 51.1193L356.516 59.3278C355.12 59.7609 353.813 60.4384 352.654 61.3288C351.159 62.6222 350.196 64.6637 349.711 67.5695C348.297 76.7435 351.506 86.0239 358.285 92.3654C359.35 93.4654 360.702 94.2456 362.187 94.6178C363.72 94.7754 365.269 94.5601 366.701 93.9904L389.694 86.7707C391.268 91.1564 386.798 98.6124 384.429 101.437C379.63 107.429 373.246 111.953 366.002 114.495C358.479 117.246 350.404 117.214 343.844 114.407C340.328 112.735 337.011 110.672 333.956 108.257C332.089 106.892 330.158 105.48 328.155 104.245C320.095 99.3063 310.677 97.0492 301.254 97.7985L122.687 105.635C118.383 106.208 114.047 108.518 109.43 112.697C107.779 114.193 106.159 115.769 104.592 117.293L104.571 117.314C102.634 119.199 100.632 121.146 98.5629 122.944C89.0326 131.226 68.6557 133.422 54.6537 123.332Z" fill="black"/>
<path fill-rule="evenodd" clip-rule="evenodd" d="M122.611 90.309C122.723 94.7964 126.392 98.3766 130.881 98.3794C131.021 98.3794 131.163 98.3755 131.305 98.3687L304.546 89.5992C309.111 89.3678 312.625 85.479 312.394 80.9134C312.162 76.3477 308.274 72.8341 303.708 73.0655L130.467 81.835C125.984 82.0624 122.499 85.8216 122.611 90.309ZM303.759 74.0645C303.884 74.058 304.008 74.0547 304.131 74.0547C308.078 74.0565 311.304 77.2042 311.402 81.1499C311.501 85.0956 308.437 88.4008 304.495 88.6002L131.254 97.3697C127.24 97.573 123.821 94.4839 123.618 90.47C123.414 86.4561 126.504 83.0374 130.517 82.834L303.759 74.0645Z" fill="black"/>
<path d="M232.838 115.023C230.226 111.819 227.002 109.167 223.353 107.224C221.765 106.41 220.555 105.985 218.63 104.944C217.294 104.28 216.16 103.271 215.344 102.022L218.939 101.865C219.581 102.349 220.28 102.754 221.019 103.071C221.5 103.277 221.945 102.767 221.599 102.375C218.808 99.2213 212.576 94.1291 209.403 90.6852C209.143 90.4037 207.906 88.9724 208.806 88.2577C209.426 87.7647 210.161 88.4397 210.33 88.6012C212.426 90.5997 214.416 92.0053 216.572 93.9389C216.745 94.0946 217.592 94.9457 218.121 94.6441C218.54 94.4046 218.083 93.9015 218.083 93.9015C215.765 91.5245 213.436 89.9083 211.197 87.4571C210.612 86.8167 208.442 84.6654 209.741 83.7107C210.145 83.414 210.728 83.7468 211.052 84.0617L217.239 90.0837C218.148 90.9684 219.981 92.5398 220.295 92.2978C220.586 92.0375 220.378 91.6918 220.114 91.3279C217.337 88.3431 215.487 86.6473 212.972 83.7568C212.422 83.1246 211.787 82.1359 212.398 81.5857C213.366 80.7995 215.214 82.8638 216.039 83.7759C217.702 85.617 218.653 86.9964 220.683 88.9024C221.263 89.4469 222.398 90.4717 222.7 90.156C222.7 90.156 224.198 90.1915 217.911 83.7492C217.142 82.9614 216.589 82.0938 216.855 81.8413C217.338 80.831 219.06 81.4663 220.563 83.2132L223.909 87.033C225.833 89.1123 228.213 92.2696 230.151 94.7391C232.529 97.7703 235.375 101.957 235.672 107.442C235.858 108.576 236.473 109.594 237.39 110.285" fill="white"/>
<path d="M232.497 115.284C229.925 112.129 226.751 109.519 223.158 107.607C222.487 107.264 221.885 106.99 221.268 106.709C220.42 106.325 219.544 105.927 218.426 105.322C217.019 104.609 215.825 103.54 214.962 102.22L214.654 101.623L219.055 101.43L219.169 101.503C219.441 101.676 219.638 101.81 219.807 101.926C220.234 102.234 220.698 102.486 221.188 102.677C221.265 102.709 221.294 102.667 221.294 102.666C219.862 101.06 217.481 98.8925 215.179 96.7963C212.95 94.767 210.646 92.6684 209.087 90.9765C208.492 90.4058 208.126 89.6377 208.058 88.8163C208.083 88.4632 208.259 88.1379 208.539 87.9218C209.12 87.4594 209.901 87.5981 210.627 88.2914C211.796 89.4052 212.911 90.3173 214.093 91.2831C214.986 92.0136 215.91 92.769 216.859 93.6196C217.119 93.9185 217.452 94.1444 217.825 94.2748C217.807 94.244 217.786 94.2149 217.763 94.1879C216.727 93.1259 215.656 92.1913 214.621 91.287C213.307 90.1798 212.057 88.9978 210.879 87.747L210.738 87.5957C209.733 86.5166 208.815 85.3779 208.911 84.3579C208.948 83.9584 209.159 83.5953 209.487 83.3652C210.121 83.0298 210.905 83.1933 211.352 83.7544L217.539 89.7764C218.256 90.4847 219.031 91.131 219.856 91.7085C219.83 91.6709 219.801 91.6279 219.766 91.5806C218.698 90.4375 217.744 89.4575 216.835 88.5254C215.466 87.1187 214.171 85.7905 212.647 84.0391C211.639 82.8789 211.442 81.8687 212.11 81.2671C213.396 80.2158 215.309 82.3266 216.333 83.4614C216.921 84.1118 217.403 84.6826 217.872 85.2387C218.836 86.4202 219.873 87.5394 220.978 88.5898C221.393 89.011 221.854 89.3847 222.353 89.7041C222.126 89.1928 221.217 87.7519 217.604 84.0493C217.225 83.6611 216.345 82.685 216.357 82.0088C216.357 81.861 216.406 81.7173 216.496 81.6001C216.687 81.2362 217.045 80.9905 217.453 80.9443C218.395 80.8125 219.725 81.5796 220.889 82.9341L224.232 86.751C225.787 88.4311 227.663 90.8442 229.317 92.9731L230.488 94.4746C232.944 97.6045 235.802 101.904 236.102 107.419C236.282 108.406 236.817 109.293 237.605 109.914L237.175 110.658C236.129 109.896 235.434 108.746 235.244 107.466C234.959 102.221 232.339 98.2236 229.813 95.0049L228.64 93.5005C226.995 91.3847 225.132 88.9873 223.594 87.3252L220.24 83.4966C219.149 82.228 218.09 81.73 217.566 81.7954C217.423 81.8056 217.298 81.8952 217.242 82.0273L217.223 82.0669C217.452 82.5936 217.792 83.0651 218.219 83.4497C223.726 89.0932 223.378 89.8916 223.23 90.2329C223.167 90.3792 223.047 90.4934 222.898 90.5488C222.382 90.9018 221.543 90.2978 220.39 89.2158C219.261 88.1433 218.201 87 217.217 85.793C216.753 85.2436 216.276 84.6802 215.721 84.064C214.112 82.2847 213.088 81.5732 212.668 81.9194C212.373 82.1865 212.818 82.9272 213.296 83.4756C214.804 85.2085 216.089 86.5288 217.45 87.9263C218.363 88.8628 219.322 89.8472 220.428 91.0356C220.678 91.375 221.188 92.0762 220.581 92.6182C220.376 92.7768 219.827 93.2022 216.94 90.3916L210.752 84.3696C210.506 84.1299 210.142 83.9492 209.995 84.0571C209.864 84.1418 209.779 84.2824 209.766 84.438C209.693 85.2148 210.909 86.519 211.367 87.0097L211.514 87.1679C212.669 88.3955 213.895 89.5548 215.186 90.6401C216.233 91.5556 217.317 92.5019 218.391 93.602C218.618 93.837 218.737 94.1567 218.718 94.4834C218.679 94.7111 218.538 94.9082 218.334 95.0175C217.569 95.4531 216.668 94.6147 216.328 94.2988C215.352 93.4214 214.436 92.6723 213.549 91.9477C212.407 91.0146 211.227 90.0498 210.034 88.9126C209.849 88.7343 209.385 88.3476 209.073 88.5942C208.979 88.6613 208.92 88.7677 208.914 88.8833C209.006 89.4628 209.29 89.9949 209.719 90.395C211.252 92.0586 213.542 94.1445 215.758 96.1616C218.183 98.3701 220.475 100.457 221.92 102.091C222.199 102.388 222.228 102.84 221.989 103.17C221.728 103.526 221.252 103.65 220.851 103.466C220.308 103.253 219.794 102.973 219.32 102.634C219.183 102.54 219.026 102.433 218.821 102.3L216.114 102.419C216.878 103.299 217.801 104.028 218.834 104.566C219.926 105.157 220.788 105.549 221.622 105.928C222.252 106.214 222.866 106.493 223.549 106.842C227.254 108.816 230.527 111.508 233.179 114.762L232.497 115.284Z" fill="black"/>
<path d="M189.656 117.331C191.608 113.9 194.256 110.915 197.43 108.566C198.86 107.499 199.982 106.878 201.707 105.531C202.626 104.812 203.968 103.844 204.367 102.622L200.928 102.696C200.355 103.232 199.721 103.697 199.038 104.082C198.598 104.365 198.074 103.937 198.351 103.493C200.576 99.9178 205.873 93.8578 208.427 89.9331C208.636 89.6122 209.618 87.9946 208.611 87.4399C207.917 87.0574 207.305 87.8455 207.165 88.0329C205.432 90.3529 203.704 92.0705 201.901 94.3365C201.756 94.519 201.063 95.4993 200.491 95.2901C200.038 95.1239 200.404 94.5516 200.404 94.5516C202.294 91.8214 204.321 89.8395 206.12 87.0492C206.59 86.3202 208.371 83.8373 206.93 83.1127C206.483 82.8874 205.964 83.3127 205.697 83.6771L200.6 90.6466C199.851 91.6705 198.307 93.5254 197.956 93.3392C197.626 93.131 197.774 92.7555 197.973 92.3526C200.213 88.9466 201.755 86.9661 203.753 83.6967C204.19 82.9817 204.651 81.9009 203.957 81.4603C202.871 80.8466 201.393 83.1901 200.732 84.2269C199.399 86.3196 198.691 87.8383 197.007 90.056C196.526 90.6896 195.578 91.8892 195.228 91.6283C195.228 91.6283 193.757 91.913 198.881 84.5128C199.508 83.6078 199.909 82.6601 199.605 82.4555C198.96 81.5398 197.368 82.4535 196.177 84.4265L193.515 88.7507C191.965 91.1216 190.144 94.6315 188.645 97.3896C186.805 100.775 184.698 105.378 185.319 110.836C185.325 111.984 184.888 113.09 184.1 113.925" fill="white"/>
<path fill-rule="evenodd" clip-rule="evenodd" d="M189.276 117.129L190.036 117.53C191.96 114.156 194.566 111.22 197.687 108.908C198.291 108.458 198.839 108.088 199.402 107.707C200.173 107.187 200.971 106.649 201.972 105.867L202.179 105.706C203.305 104.986 204.206 103.963 204.775 102.753L204.964 102.177L200.76 102.268L200.642 102.375C200.213 102.787 199.738 103.148 199.227 103.451L198.807 103.719C198.736 103.765 198.7 103.727 198.716 103.718C199.843 101.908 201.824 99.3794 203.74 96.9329L203.748 96.9226C205.608 94.5491 207.532 92.0945 208.787 90.1653C209.279 89.5042 209.513 88.6857 209.442 87.8645C209.359 87.5201 209.131 87.228 208.818 87.0618C208.168 86.7034 207.422 86.9704 206.821 87.7737C205.854 89.0686 204.905 90.1545 203.901 91.3039C203.143 92.1726 202.358 93.0705 201.519 94.1277C201.086 94.6902 200.838 94.8386 200.721 94.8747C200.731 94.8467 200.744 94.8196 200.759 94.7937C201.613 93.5578 202.513 92.4573 203.383 91.3928C204.494 90.0828 205.528 88.7096 206.48 87.28L206.593 87.1096C207.406 85.8777 208.122 84.6008 207.857 83.6101C207.754 83.2224 207.486 82.8996 207.124 82.7273C206.443 82.5006 205.697 82.7926 205.351 83.4216L200.254 90.3909C199.664 91.211 199.006 91.9792 198.285 92.6872C198.299 92.6565 198.314 92.6228 198.332 92.5862C199.22 91.237 199.997 90.1125 200.737 89.0422L200.775 88.988C201.877 87.3918 202.923 85.878 204.119 83.9187C204.922 82.6062 204.946 81.5774 204.168 81.0847C202.745 80.2761 201.212 82.6745 200.37 83.9939C199.918 84.7038 199.537 85.3484 199.166 85.9763C198.414 87.3003 197.579 88.5754 196.666 89.7942C196.326 90.2798 195.934 90.7261 195.495 91.1247C195.632 90.5852 196.285 89.0144 199.234 84.7551C199.544 84.3093 200.249 83.1999 200.123 82.5354C200.099 82.3895 200.027 82.2558 199.919 82.155C199.672 81.8268 199.277 81.6439 198.866 81.6677C197.904 81.7014 196.733 82.6726 195.813 84.1989L193.156 88.5134C191.897 90.4387 190.45 93.1296 189.174 95.5036L188.269 97.1823C186.368 100.677 184.269 105.394 184.893 110.882C184.886 111.886 184.506 112.852 183.826 113.592L184.373 114.254C185.278 113.329 185.773 112.079 185.746 110.785C185.152 105.566 187.069 101.187 189.022 97.5925L189.931 95.9104C191.198 93.5515 192.636 90.8777 193.881 88.9734L196.545 84.6458C197.408 83.2161 198.369 82.5447 198.896 82.5261C199.039 82.514 199.176 82.581 199.254 82.7005L199.28 82.7371C199.142 83.2944 198.886 83.8157 198.529 84.2659C194.04 90.7483 194.516 91.4783 194.719 91.7898C194.805 91.9237 194.943 92.0163 195.1 92.0462C195.674 92.3079 196.395 91.5711 197.35 90.3137C198.283 89.0688 199.137 87.7659 199.905 86.4129L199.916 86.394C200.279 85.7803 200.652 85.1491 201.114 84.4241C202.383 82.4349 203.273 81.5608 203.727 81.8211C204.083 82.0462 203.766 82.8504 203.387 83.471C202.188 85.4314 201.141 86.948 200.03 88.554C199.287 89.6292 198.507 90.7591 197.589 92.16C197.425 92.4911 197.041 93.2669 197.755 93.7161C197.958 93.8245 198.567 94.1498 200.947 90.8978L206.044 83.9286C206.243 83.6571 206.578 83.4115 206.737 83.4945C206.881 83.5557 206.989 83.6801 207.028 83.8315C207.23 84.5863 206.246 86.0761 205.876 86.6366L205.759 86.8149C204.825 88.2176 203.81 89.5648 202.719 90.8495L202.713 90.8563C201.834 91.9318 200.925 93.0441 200.044 94.3178C199.864 94.5848 199.803 94.9147 199.876 95.2284C199.952 95.4467 200.125 95.6174 200.344 95.6908C201.164 95.9929 201.913 95.0225 202.235 94.6045L202.237 94.602C203.011 93.6297 203.782 92.7462 204.528 91.8921L204.548 91.8691C205.519 90.7577 206.522 89.6088 207.509 88.2885C207.701 88.0331 208.07 87.6308 208.404 87.8139C208.508 87.8651 208.583 87.9601 208.609 88.0727C208.615 88.6592 208.425 89.2307 208.068 89.6967C206.835 91.5914 204.926 94.0271 203.08 96.3833L203.072 96.3934C201.05 98.974 199.14 101.412 197.987 103.264C197.762 103.603 197.809 104.054 198.099 104.339C198.417 104.645 198.905 104.687 199.271 104.441L199.687 104.175C200.194 103.876 200.667 103.522 201.097 103.12L203.683 103.064C203.119 103.826 202.433 104.489 201.652 105.027L201.442 105.19C200.465 105.954 199.681 106.484 198.922 106.996C198.348 107.383 197.789 107.761 197.173 108.22C193.943 110.601 191.252 113.637 189.276 117.129Z" fill="black"/>
<path d="M189.911 120.022C175.281 144.572 165.321 170.332 160.611 200.342C158.661 212.242 160.396 224.454 165.581 235.342C169.561 243.622 177.271 250.022 185.761 250.892C185.738 251.098 185.745 251.307 185.781 251.512C187.079 258.206 187.825 264.995 188.011 271.812C188.101 280.282 187.171 291.152 185.081 299.252C183.481 305.472 179.691 312.582 176.041 316.162C178.551 302.742 175.321 288.732 170.801 281.242C164.971 271.482 156.091 262.252 149.991 250.912C143.531 238.902 141.341 231.802 141.241 221.162C141.261 211.571 142.422 202.017 144.701 192.702C147.961 179.462 160.261 142.942 181.891 115.022C182.555 114.161 183.731 113.882 184.711 114.352L188.941 116.792C189.521 117.068 189.957 117.576 190.142 118.192C190.327 118.807 190.243 119.472 189.911 120.022Z" fill="white"/>
<path fill-rule="evenodd" clip-rule="evenodd" d="M175.55 316.069L175.258 317.629L176.392 316.517C180.083 312.897 183.94 305.688 185.565 299.375C187.859 290.483 188.591 279.303 188.511 271.805C188.363 265.468 187.698 259.154 186.523 252.926L186.272 251.417C186.245 251.259 186.24 251.098 186.259 250.939L186.307 250.444L185.812 250.393C177.862 249.579 170.099 243.585 166.031 235.124C160.889 224.328 159.17 212.219 161.105 200.418C165.623 171.63 174.913 146.164 190.34 120.278C190.744 119.604 190.845 118.792 190.619 118.04C190.399 117.304 189.881 116.694 189.191 116.357L184.927 113.9C183.734 113.33 182.305 113.669 181.495 114.714C160.499 141.817 147.929 177.5 144.216 192.581C141.921 201.936 140.755 211.533 140.741 221.165C140.841 231.775 142.898 238.78 149.551 251.147C153.048 257.294 157.011 263.165 161.405 268.707C164.618 272.81 167.612 277.08 170.373 281.499C174.653 288.591 178.1 302.434 175.55 316.069ZM182.287 115.325C182.632 114.88 183.163 114.62 183.726 114.62C183.98 114.619 184.231 114.675 184.461 114.784L188.727 117.242C189.179 117.454 189.52 117.85 189.662 118.329C189.806 118.811 189.741 119.332 189.482 119.763L189.481 119.765C173.986 145.766 164.656 171.345 160.117 200.263C158.15 212.264 159.9 224.579 165.131 235.557C169.267 244.164 177.127 250.31 185.255 251.336C185.261 251.422 185.272 251.507 185.288 251.592L185.537 253.09C186.703 259.268 187.363 265.531 187.511 271.816C187.591 279.249 186.867 290.327 184.597 299.126C183.1 304.765 180.45 310.033 176.813 314.596C178.849 301.249 175.431 287.944 171.23 280.984C168.451 276.535 165.438 272.236 162.204 268.105C157.842 262.603 153.906 256.776 150.432 250.674C143.869 238.473 141.839 231.577 141.741 221.156C141.756 211.607 142.912 202.094 145.187 192.82C148.882 177.81 161.392 142.297 182.287 115.325Z" fill="black"/>
<path d="M277.312 234.486C270.502 249.226 262.402 257.716 251.282 276.146C242.582 290.426 243.442 307.056 246.842 322.056C247.382 324.426 248.462 328.346 249.282 331.236C248.911 330.921 248.512 330.64 248.092 330.396C240.262 325.786 233.722 311.756 231.562 298.806C229.142 284.326 228.422 268.616 231.322 254.176C231.353 254.014 231.37 253.85 231.372 253.686C231.995 253.647 232.616 253.574 233.232 253.466C237.702 252.666 242.332 249.596 245.512 246.356C262.342 229.186 271.702 193.976 266.932 170.406C262.302 147.576 249.062 132.206 233.032 117.256C232.634 116.885 232.404 116.368 232.397 115.824C232.389 115.281 232.604 114.757 232.992 114.376L236.762 110.286C237.504 109.555 238.683 109.516 239.472 110.196C252.696 121.293 263.848 134.646 272.412 149.636C276.943 157.731 280.591 166.291 283.292 175.166C289.712 197.486 286.112 215.446 277.312 234.486Z" fill="white"/>
<path fill-rule="evenodd" clip-rule="evenodd" d="M248.955 331.616L250.219 332.708L249.763 331.101C249.104 328.781 247.913 324.508 247.329 321.947C243.066 303.138 244.498 288.241 251.709 276.406C256.212 268.943 260.269 263.039 263.849 257.83L263.85 257.829L263.851 257.827C269.136 250.138 273.7 243.496 277.765 234.697V234.697C287.776 213.039 289.572 195.195 283.772 175.029C281.067 166.111 277.402 157.512 272.842 149.384C264.253 134.345 253.065 120.949 239.797 109.818C238.801 108.971 237.322 109.028 236.394 109.949L232.643 114.02C232.157 114.49 231.887 115.14 231.896 115.816C231.9 116.502 232.188 117.156 232.691 117.623C249.736 133.521 261.997 148.597 266.441 170.506C271.331 194.671 261.583 229.246 245.155 246.007C242.381 248.833 237.77 252.148 233.144 252.975C232.547 253.079 231.944 253.151 231.339 253.189L230.871 253.219V253.688C230.87 253.819 230.856 253.95 230.83 254.079C228.205 267.157 228.285 282.234 231.068 298.89C233.096 311.049 239.507 325.924 247.835 330.827C248.231 331.056 248.606 331.32 248.955 331.616ZM231.811 254.274C231.819 254.234 231.827 254.194 231.832 254.154C232.345 254.109 232.843 254.044 233.319 253.96C237.445 253.221 242.136 250.51 245.869 246.708C262.498 229.741 272.369 194.754 267.421 170.308C262.925 148.138 250.558 132.921 233.374 116.893C233.072 116.613 232.899 116.22 232.896 115.808C232.893 115.396 233.06 115.001 233.359 114.716L237.113 110.644C237.671 110.099 238.553 110.07 239.146 110.577C252.329 121.637 263.446 134.948 271.981 149.891C276.485 157.953 280.115 166.473 282.811 175.306C288.538 195.22 286.758 212.857 276.857 234.277V234.278C272.828 243 268.286 249.61 263.026 257.262C259.438 262.483 255.372 268.401 250.855 275.887C243.502 287.954 242.031 303.093 246.354 322.169C246.84 324.306 247.744 327.612 248.415 330.009C248.392 329.995 248.369 329.981 248.345 329.967C240.279 325.218 234.044 310.656 232.054 298.725C229.29 282.19 229.208 267.235 231.811 254.274Z" fill="black"/>
<path d="M259.821 432.7C256.961 447.99 251.931 465.38 248.751 479.12C238.638 522.831 231.017 578.688 222.837 626.701C222.692 627.577 222.033 628.279 221.168 628.48C216.118 629.63 209.299 628.753 205.973 628.193C204.844 628.007 204.043 626.993 204.123 625.852C205.268 609.627 212.802 496.584 206.401 416.67C206.401 416.67 204.921 392.66 199.731 388.81C196.331 386.28 191.581 385.9 181.351 392.23C181.351 392.23 131.431 425.52 116.341 435.32C110.851 439.1 111.381 443.02 113.341 447.3C113.838 448.393 114.525 449.389 115.371 450.24C132.881 467.8 150.431 477.81 167.241 491.53C169.065 493.007 163.389 502.097 160.176 505.921C159.507 506.727 158.364 506.952 157.439 506.459C138.125 496.115 113.296 481.544 98.731 473.16C90.5337 468.503 82.7251 463.192 75.381 457.28C70.8944 453.894 67.5148 449.251 65.671 443.94C61.9908 433.34 68.7408 423.86 72.671 419.38C96.0209 392.81 145.581 356.71 159.881 342.2C166.123 335.984 170.763 328.346 173.403 319.941C173.818 318.646 174.577 317.488 175.598 316.589C179.381 313.164 183.408 305.733 185.081 299.26C187.171 291.16 187.645 280.228 187.555 271.758C187.369 264.946 186.619 258.162 185.315 251.474C185.213 250.855 185.378 250.222 185.768 249.731C186.159 249.24 186.739 248.938 187.365 248.898L192.223 248.677C193.387 248.599 194.413 249.435 194.57 250.591C194.888 252.936 195.37 256.436 195.377 256.47C196.807 266.31 197.501 275.72 199.121 285.79C199.521 288.32 200.091 291.12 202.171 292.62C204.433 293.904 207.164 294.06 209.557 293.041C211.507 291.941 213.137 290.352 214.287 288.431C218.197 282.501 218.965 273.668 220.355 266.708C221.092 263.003 222.258 256.21 222.848 252.455C222.945 251.838 223.297 251.291 223.818 250.947C224.34 250.603 224.982 250.495 225.587 250.648L230.155 251.722C231.312 252.018 232.03 253.173 231.785 254.341C228.88 268.784 229.138 284.324 231.561 298.81C233.725 311.757 240.265 325.791 248.09 330.398C250.021 331.494 251.471 333.275 252.153 335.389C255.146 345.145 258.514 354.732 260.741 366.53C264.991 388.415 264.678 410.942 259.821 432.7Z" fill="black"/>
<path d="M193.962 249.947C191.332 250.864 188.532 251.188 185.762 250.897C185.887 249.83 186.759 249.004 187.832 248.937L191.822 248.677C192.73 248.612 193.584 249.119 193.962 249.947Z" fill="black"/>
<path d="M231.371 253.687C228.638 253.826 225.928 253.128 223.602 251.687C224.105 250.826 225.116 250.402 226.082 250.647L229.691 251.557C230.671 251.801 231.362 252.677 231.371 253.687Z" fill="black"/>
<path d="M218.317 177.308C213.273 177.756 209.676 182.367 207.132 186.263C204.369 190.406 202.435 195.045 201.439 199.924C200.449 203.549 200.383 207.363 201.248 211.019C202.613 216.135 206.776 219.557 213.474 220.173C220.326 220.803 225.123 220.002 228.416 215.855C232.256 211.019 233.252 205.316 233.776 200.047C234.089 195.723 233.549 191.38 232.185 187.265C231.016 183.789 227.136 176.526 218.317 177.308Z" fill="white"/>
<path fill-rule="evenodd" clip-rule="evenodd" d="M213.428 220.672C214.782 220.797 216.034 220.86 217.196 220.86C222.743 220.86 226.235 219.407 228.808 216.167C232.695 211.272 233.732 205.551 234.273 200.097C234.595 195.703 234.047 191.289 232.659 187.107C232.029 185.231 228.367 175.909 218.273 176.811C213.037 177.276 209.345 181.961 206.713 185.991C203.914 190.18 201.957 194.875 200.952 199.812C199.938 203.516 199.873 207.415 200.765 211.149C202.239 216.675 206.736 220.056 213.428 220.672ZM207.551 186.538C210.058 182.697 213.553 178.234 218.361 177.808V177.808C227.727 176.979 231.123 185.675 231.711 187.426C233.055 191.473 233.588 195.746 233.279 199.999C232.751 205.3 231.75 210.853 228.025 215.545C225.152 219.163 220.952 220.357 213.52 219.676C207.276 219.102 203.089 215.982 201.732 210.891C200.884 207.315 200.951 203.583 201.926 200.039C202.908 195.216 204.818 190.63 207.551 186.538Z" fill="black"/>
<path d="M216.584 211.815C215.791 211.82 215.008 211.639 214.297 211.289C214.051 211.165 213.952 210.865 214.075 210.619C214.199 210.372 214.498 210.272 214.745 210.394C216.589 211.244 218.774 210.742 220.062 209.172C220.171 209.03 220.347 208.957 220.524 208.981C220.701 209.004 220.852 209.12 220.921 209.286C220.989 209.451 220.964 209.64 220.855 209.781C219.818 211.078 218.244 211.827 216.584 211.815Z" fill="black"/>
<path d="M214.99 203.762C214.064 203.891 213.145 203.482 212.62 202.707C212.281 202.021 212.323 201.207 212.733 200.56C213.235 199.822 214.038 199.344 214.926 199.255C215.715 199.211 216.505 199.284 217.273 199.472C217.542 199.536 217.708 199.805 217.644 200.074C217.581 200.343 217.311 200.51 217.042 200.446C216.389 200.284 215.716 200.217 215.043 200.248C214.458 200.299 213.925 200.604 213.584 201.083C213.366 201.422 213.331 201.847 213.491 202.216C213.748 202.673 214.449 202.775 215.02 202.762C215.754 202.771 216.487 202.696 217.204 202.538C217.378 202.497 217.561 202.551 217.683 202.681C217.806 202.811 217.85 202.996 217.798 203.167C217.747 203.338 217.609 203.469 217.435 203.51C216.644 203.687 215.836 203.771 215.026 203.762H214.99Z" fill="black"/>
<path d="M210.491 195.683C209.025 195.785 207.728 194.738 207.518 193.284C207.469 193.012 207.65 192.752 207.922 192.703C208.193 192.654 208.453 192.835 208.502 193.107C208.621 194.089 209.508 194.792 210.491 194.683C211.81 194.683 212.603 194.213 212.847 193.284C212.918 193.018 213.191 192.859 213.457 192.93C213.723 193 213.883 193.272 213.814 193.539C213.603 194.339 212.891 195.683 210.491 195.683Z" fill="black"/>
<path d="M224.164 196.97C224.059 196.97 223.952 196.967 223.841 196.961C222.314 196.948 221.022 195.83 220.788 194.321C220.76 194.145 220.829 193.967 220.967 193.854C221.106 193.741 221.295 193.711 221.462 193.775C221.629 193.839 221.749 193.987 221.777 194.164C221.927 195.213 222.836 195.985 223.896 195.963C224.992 196.195 226.093 195.592 226.487 194.543C226.533 194.369 226.669 194.233 226.844 194.187C227.018 194.142 227.204 194.193 227.329 194.323C227.455 194.452 227.501 194.639 227.45 194.812C227.015 196.228 225.636 197.134 224.164 196.97Z" fill="black"/>
<path d="M234.786 198.053C235.184 198.654 235.106 199.451 234.598 199.962C234.06 200.401 234.827 201.16 235.361 200.724C236.219 199.869 236.367 198.532 235.718 197.509C235.303 196.963 234.366 197.5 234.786 198.053Z" fill="black"/>
<path d="M248.062 222.831C246.917 223.757 245.511 224.299 244.042 224.381C237.426 224.842 231.444 220.459 229.891 214.011L229.731 213.981C232.501 209.581 233.321 204.641 233.771 200.041C234.033 196.758 233.777 193.454 233.011 190.251C232.204 189.679 231.366 189.151 230.501 188.671C230.14 188.538 229.812 188.326 229.541 188.051C229.334 187.767 229.188 187.444 229.111 187.101C228.531 185.161 227.951 183.218 227.371 181.271C227.388 182.803 227.196 184.331 226.801 185.811C226.549 186.733 225.61 187.286 224.681 187.061C222.544 186.55 220.365 186.232 218.171 186.111C217.673 186.084 217.209 185.849 216.893 185.463C216.578 185.076 216.439 184.575 216.511 184.081L216.981 180.891C216.161 182.661 213.332 185.731 211.082 185.681C210.261 185.661 208.891 185.521 207.711 185.381C207.511 185.681 207.321 185.971 207.131 186.261C204.369 190.404 202.437 195.043 201.441 199.921C200.648 202.937 200.451 206.08 200.861 209.171C196.431 213.401 187.141 217.101 181.461 215.091C178.281 213.961 176.671 209.701 177.501 206.431C179.441 198.801 191.171 187.671 194.151 184.471C199.041 179.241 206.801 172.861 212.611 170.311C219.911 167.091 227.431 167.051 232.891 171.681C235.257 173.888 237.139 176.561 238.421 179.531C241.861 186.671 243.961 194.361 246.051 202.001C247.051 205.651 248.048 209.301 249.041 212.951C249.961 216.331 250.661 220.501 248.062 222.831Z" fill="black"/>
<circle cx="221.363" cy="299.265" r="3.59279" fill="white"/>
<circle cx="193.262" cy="298.358" r="3.59279" fill="white"/>
<path d="M223.291 670.617C222.501 674.377 217.611 675.267 214.651 677.707C211.181 680.557 211.27 682.267 210.561 688.047C210.151 691.337 210.521 695.477 207.541 696.937C205.571 698.007 200.001 697.947 198.291 697.617C196.469 697.478 195.078 695.933 195.131 694.107C195.041 691.981 196.025 689.952 197.75 688.707C201.101 686.337 201.091 682.657 201.081 678.997C205.303 678.491 209.001 675.931 210.961 672.157C211.583 670.83 212.089 669.452 212.471 668.037C213.5 664.627 214.534 661.214 215.571 657.797C216.161 660.147 218.431 662.207 219.99 663.697C221.921 665.547 223.851 668.007 223.291 670.617Z" fill="black"/>
<path d="M207.711 549.478C207.651 550.198 207.331 552.018 206.141 552.678C205.201 553.188 202.941 553.468 202.261 550.198C201.491 546.528 199.301 541.188 198.081 537.638C197.781 536.778 197.013 535.035 196.483 533.895C198.153 530.635 198.419 527.38 198.031 523.558C197.757 520.945 196.925 518.421 195.591 516.158C198.441 516.638 202.653 515.18 205.023 516.721C209.993 519.92 205.531 527.538 205.341 530.618C204.971 536.568 208.211 543.518 207.711 549.478Z" fill="black"/>
<path d="M209.045 623.109C209.02 623.109 208.994 623.107 208.97 623.104C205.099 622.525 205.121 622.156 205.141 621.831C205.16 621.571 205.374 621.367 205.635 621.359C205.735 621.358 205.834 621.386 205.92 621.439C206.967 621.745 208.037 621.971 209.118 622.115C209.376 622.154 209.561 622.386 209.542 622.646C209.523 622.907 209.306 623.109 209.045 623.109Z" fill="white"/>
<path d="M215.217 623.552C213.997 623.552 212.771 623.502 211.574 623.404C211.442 623.393 211.319 623.33 211.234 623.229C211.148 623.128 211.106 622.997 211.117 622.864C211.143 622.591 211.382 622.389 211.656 622.407C213.121 622.527 214.591 622.571 216.134 622.543H216.143C216.419 622.541 216.646 622.762 216.648 623.038C216.651 623.314 216.429 623.541 216.153 623.543C215.835 623.549 215.523 623.552 215.217 623.552Z" fill="white"/>
<path d="M218.734 623.414C218.465 623.413 218.245 623.201 218.235 622.932C218.225 622.664 218.429 622.435 218.696 622.415C219.832 622.329 220.99 622.196 222.137 622.021C222.409 621.98 222.664 622.168 222.705 622.44C222.746 622.713 222.56 622.967 222.287 623.009C221.116 623.188 219.934 623.324 218.773 623.413C218.76 623.414 218.747 623.414 218.734 623.414Z" fill="white"/>
<path d="M152.086 502.545C152.007 502.542 151.931 502.515 151.868 502.467C151.65 502.329 151.57 502.05 151.682 501.817C151.729 501.721 151.805 501.642 151.9 501.593C152.68 500.829 153.402 500.008 154.06 499.137C154.23 498.92 154.543 498.882 154.76 499.05C154.977 499.219 155.017 499.532 154.849 499.75C153.014 502.112 152.394 502.545 152.086 502.545Z" fill="white"/>
<path d="M155.973 497.825C155.788 497.825 155.619 497.724 155.532 497.561C155.445 497.399 155.454 497.201 155.557 497.048C156.387 495.801 157.138 494.503 157.804 493.161C157.883 493.001 158.042 492.895 158.22 492.884C158.398 492.872 158.569 492.957 158.668 493.106C158.767 493.254 158.779 493.444 158.7 493.605C158.015 494.985 157.243 496.32 156.389 497.603C156.296 497.742 156.14 497.826 155.973 497.825Z" fill="white"/>
<path d="M159.321 491.504C159.155 491.504 159 491.422 158.907 491.284C158.814 491.147 158.795 490.972 158.857 490.818C159.287 489.751 159.656 488.662 159.964 487.554C160.037 487.288 160.312 487.132 160.578 487.206C160.844 487.279 161 487.554 160.927 487.82C160.61 488.964 160.229 490.09 159.785 491.191C159.709 491.381 159.525 491.505 159.321 491.504Z" fill="white"/>
<path d="M233.318 195.716C233.821 195.217 234.558 195.034 235.236 195.239C236.071 195.459 236.741 196.08 237.022 196.896C237.449 197.86 237.563 198.933 237.348 199.965C237.205 201.057 236.55 202.015 235.585 202.544C234.674 202.974 232.68 202.694 232.447 201.706L233.318 195.716Z" fill="white"/>
<path d="M233.7 196.099C234.137 195.771 234.702 195.664 235.229 195.809C235.756 195.953 236.187 196.333 236.396 196.839C236.83 197.653 236.996 198.583 236.872 199.497C236.851 200.617 236.202 201.63 235.194 202.119C234.593 202.316 233.243 202.252 232.968 201.565C232.712 200.928 231.669 201.206 231.928 201.851C232.53 202.974 233.816 203.546 235.053 203.242C236.579 202.883 237.712 201.598 237.878 200.039C238.239 198.428 237.817 196.742 236.742 195.49C235.718 194.43 234.042 194.363 232.937 195.337C232.42 195.802 233.184 196.562 233.7 196.099H233.7Z" fill="black"/>
<path d="M340.944 399.068C346.373 393.15 349.967 385.784 351.29 377.863C351.878 374.299 351.634 368.671 347.37 368.227C345.004 367.947 342.733 369.245 341.773 371.425C339.528 375.654 341.83 381.997 345.316 385.278C348.803 388.56 353.817 389.812 358.604 389.681C373.198 389.284 384.775 377.807 394.711 367.109" stroke="black" stroke-linecap="round"/>
<path d="M23.6538 329.82C28.2129 322.443 34.3391 315.758 42.2617 311.966C50.2166 308.159 60.7509 305.942 68.8269 310.569C70.883 311.747 72.4312 313.218 72.3802 315.73C72.3286 318.272 70.8485 319.709 68.7025 320.748C65.095 322.46 61.0346 322.972 57.1151 322.21C49.383 320.722 43.3834 314.597 42.0567 306.835C40.7339 297.829 44.798 288.881 52.4503 283.951C52.9924 283.608 52.4913 282.742 51.9455 283.088C44.5499 287.848 40.3029 296.233 40.8402 305.012C41.4331 313.516 47.3679 320.702 55.6067 322.891C61.3699 324.403 74.2665 323.432 73.3472 314.865C72.8992 310.69 68.2018 308.737 64.6365 307.781C59.7081 306.637 54.5677 306.787 49.7142 308.216C37.9849 311.281 29.0778 319.142 22.7904 329.315C22.4511 329.864 23.3158 330.366 23.6538 329.819V329.82Z" fill="black"/>
<path d="M338.427 280.113L342.6 273.335C342.938 272.785 342.073 272.283 341.736 272.83L337.563 279.608C337.225 280.158 338.09 280.66 338.427 280.113Z" fill="black"/>
<path d="M115.65 7.51906L119.822 0.741141C120.161 0.191601 119.296 -0.311239 118.959 0.236421L114.786 7.01434C114.448 7.56388 115.312 8.06672 115.65 7.51906Z" fill="black"/>
<path d="M421.743 296.695L426.042 302.847C426.408 303.371 427.276 302.872 426.906 302.342L422.607 296.191C422.241 295.667 421.373 296.166 421.743 296.695Z" fill="black"/>
<path d="M271.492 16.9923L275.791 23.1439C276.157 23.6676 277.025 23.1684 276.655 22.6392L272.356 16.4876C271.99 15.9639 271.122 16.4631 271.492 16.9923Z" fill="black"/>
<path d="M364.391 176.947L371.973 169.373C372.157 169.176 372.152 168.869 371.961 168.678C371.77 168.487 371.463 168.482 371.266 168.666L363.684 176.24C363.499 176.437 363.505 176.745 363.695 176.936C363.886 177.126 364.194 177.131 364.391 176.947H364.391Z" fill="black"/>
<path d="M444.522 220.422L450.228 227.264C450.641 227.759 451.345 227.048 450.936 226.557L445.229 219.714C444.817 219.22 444.113 219.93 444.522 220.422Z" fill="black"/>
<path d="M447.886 421.742L450.314 433.119C450.449 433.748 451.413 433.482 451.279 432.854L448.85 421.476C448.716 420.847 447.752 421.114 447.886 421.742Z" fill="black"/>
<path d="M392.577 532.087L397.554 526.071C397.961 525.579 397.257 524.867 396.847 525.364L391.87 531.379C391.462 531.872 392.166 532.583 392.577 532.087H392.577Z" fill="black"/>
<path d="M294.809 477.128V466.717C294.799 466.448 294.578 466.234 294.309 466.234C294.039 466.234 293.818 466.448 293.809 466.717V477.128C293.818 477.397 294.039 477.61 294.309 477.61C294.578 477.61 294.799 477.397 294.809 477.128Z" fill="black"/>
<path d="M15.7994 512.051C18.1831 510.608 20.3391 508.819 22.1968 506.742C22.6247 506.264 21.9198 505.554 21.4897 506.035C19.6918 508.051 17.6039 509.787 15.2947 511.188C15.0667 511.332 14.9939 511.631 15.13 511.864C15.266 512.096 15.5621 512.179 15.7994 512.051H15.7994Z" fill="black"/>
<path d="M20.1251 395.522C22.4707 398.308 25.0129 400.921 27.7321 403.344C28.2113 403.77 28.921 403.066 28.4393 402.636C25.72 400.214 23.1778 397.6 20.8322 394.815C20.4171 394.322 19.7128 395.033 20.1251 395.522Z" fill="black"/>
<path d="M64.8686 207.811L68.6853 216.274C68.9494 216.86 69.8115 216.352 69.5487 215.77L65.732 207.307C65.4679 206.721 64.6058 207.229 64.8686 207.811Z" fill="black"/>
<path d="M14.2195 234.604L18.9173 226.387C19.0454 226.149 18.9624 225.853 18.7295 225.717C18.4966 225.581 18.1978 225.654 18.0538 225.882L13.356 234.099C13.2279 234.336 13.311 234.632 13.5438 234.768C13.7767 234.905 14.0755 234.832 14.2195 234.604Z" fill="black"/>
<path d="M0.448129 117.152L9.33685 127.411C9.759 127.899 10.4637 127.189 10.044 126.704L1.15524 116.445C0.733089 115.958 0.0283692 116.668 0.448129 117.152V117.152Z" fill="black"/>
</svg>
